<?xml version="1.0" encoding="UTF-8" ?>
<!DOCTYPE svg PUBLIC "-//W3C//DTD SVG 1.1//EN" "http://www.w3.org/Graphics/SVG/1.1/DTD/svg11.dtd">
<svg width="662pt" height="231pt" viewBox="0 0 662 231" version="1.1" xmlns="http://www.w3.org/2000/svg">
<g id="#ffffffff">
</g>
<g id="#037f03ff">
<path fill="#037f03" opacity="1.00" d=" M 204.60 6.61 C 222.50 6.49 240.40 6.40 258.30 6.52 C 258.44 18.11 259.22 29.70 260.65 41.20 C 261.90 29.61 263.35 18.05 264.88 6.49 C 268.07 6.96 272.53 6.66 274.06 10.21 C 275.31 14.68 274.65 19.41 274.75 24.00 C 274.69 56.01 274.65 88.03 274.68 120.05 C 274.75 123.86 274.09 128.33 270.57 130.54 C 264.98 133.80 258.24 133.54 251.99 133.59 C 244.30 133.45 236.59 133.82 228.91 133.30 C 226.03 132.90 222.10 132.42 221.12 129.14 C 219.61 124.72 219.04 120.05 218.24 115.46 C 217.83 115.46 217.00 115.45 216.58 115.45 C 215.50 121.38 214.85 127.39 214.28 133.39 C 207.62 133.42 200.91 134.02 194.27 133.24 C 190.28 132.78 187.16 129.13 187.51 125.08 C 187.45 88.03 187.43 50.97 187.46 13.92 C 186.90 9.15 191.71 6.35 195.93 6.59 C 198.57 6.39 199.89 9.11 201.59 10.66 C 202.60 9.31 203.59 7.96 204.60 6.61 M 232.22 25.01 C 232.01 27.67 231.80 30.33 231.76 32.99 C 231.60 54.36 231.70 75.73 231.37 97.10 C 228.21 95.94 225.38 94.13 222.46 92.50 C 220.09 91.29 216.61 91.01 214.63 93.05 C 214.01 97.95 215.36 103.40 219.29 106.65 C 223.96 110.72 230.65 111.37 236.52 110.18 C 242.87 108.38 249.00 103.07 249.20 96.06 C 249.52 86.38 249.19 76.68 249.30 67.00 C 249.04 54.84 249.88 42.63 248.49 30.53 C 243.19 28.33 237.75 26.51 232.22 25.01 Z" />
</g>
<g id="#ed3338ff">
<path fill="#ed3338" opacity="1.00" d=" M 302.98 7.04 C 304.87 6.31 306.94 6.46 308.92 6.38 C 325.76 6.55 342.59 6.32 359.42 6.46 C 359.38 12.50 359.38 18.54 359.43 24.58 C 354.86 24.58 350.10 24.09 345.77 25.84 C 340.97 27.65 336.26 30.29 331.00 30.20 C 325.13 29.88 319.80 27.00 313.98 26.39 C 309.52 25.93 305.03 26.27 300.56 26.52 C 300.53 31.44 300.04 36.41 300.79 41.30 C 302.94 42.56 305.53 42.31 307.93 42.38 C 312.76 42.33 317.60 42.36 322.43 42.57 C 322.85 64.21 322.58 85.86 322.55 107.50 C 329.17 107.69 335.77 108.20 342.39 108.17 C 342.80 86.24 342.39 64.30 342.46 42.37 C 348.58 42.22 354.70 42.20 360.82 42.37 C 361.48 45.90 362.15 49.44 362.74 52.98 C 363.95 37.40 364.83 21.80 365.98 6.22 C 369.00 6.58 372.43 6.16 375.03 8.04 C 377.48 9.86 377.49 13.18 377.59 15.93 C 377.65 32.96 377.63 49.98 377.72 67.00 C 378.69 86.00 378.41 105.04 377.66 124.04 C 377.51 127.01 376.85 130.34 374.38 132.28 C 372.22 133.68 369.51 133.42 367.06 133.54 C 353.69 133.42 340.31 133.54 326.94 133.49 C 324.44 133.63 321.46 132.85 320.78 130.08 C 319.21 124.75 319.19 119.08 317.55 113.75 C 316.23 120.12 315.87 126.63 315.00 133.07 C 308.07 133.52 300.95 133.81 294.21 131.81 C 291.94 131.10 289.41 129.94 288.56 127.53 C 287.76 125.12 287.74 122.54 287.68 120.02 C 287.78 86.34 287.72 52.66 287.68 18.98 C 287.83 15.77 287.78 12.28 289.48 9.43 C 291.07 7.50 293.76 7.14 295.95 6.20 C 297.20 8.33 298.43 10.47 299.63 12.63 C 300.66 10.72 301.60 8.73 302.98 7.04 Z" />
</g>
<g id="#fd9903ff">
<path fill="#fd9903" opacity="1.00" d=" M 400.20 10.57 C 403.49 8.75 407.05 7.15 410.92 7.44 C 427.07 7.64 443.23 7.42 459.38 7.64 C 459.56 16.10 459.56 24.55 459.42 33.01 C 455.17 31.24 451.15 28.98 446.93 27.15 C 442.27 25.09 437.03 24.93 432.03 25.39 C 427.58 25.81 423.79 28.44 419.51 29.46 C 415.77 29.63 412.70 25.15 408.89 26.74 C 406.29 29.82 406.78 34.24 406.53 38.00 C 406.67 51.67 406.28 65.35 407.23 78.99 C 407.61 89.08 407.23 99.18 407.55 109.26 C 413.83 110.07 420.14 110.67 426.47 110.51 C 426.95 101.50 426.11 92.43 427.28 83.46 C 436.93 83.39 447.83 83.31 455.45 76.45 C 463.15 69.52 463.79 58.37 465.14 48.77 C 466.03 35.12 465.23 21.43 465.47 7.75 C 468.27 7.81 471.59 7.04 473.86 9.15 C 476.82 11.90 477.35 16.21 477.51 20.04 C 477.71 28.69 477.51 37.35 477.77 46.00 C 479.36 71.68 477.41 97.38 477.62 123.07 C 477.52 125.85 477.49 129.17 475.11 131.09 C 471.67 133.67 467.08 133.40 463.00 133.52 C 450.98 133.38 438.95 133.51 426.93 133.48 C 424.82 133.33 421.58 133.53 421.08 130.84 C 419.41 125.86 418.53 120.62 416.42 115.78 C 415.26 121.39 414.53 127.07 413.62 132.73 C 407.45 133.52 401.17 133.89 394.99 133.07 C 392.10 132.67 388.65 131.49 387.83 128.34 C 386.88 123.96 387.34 119.44 387.26 115.00 C 387.21 102.67 387.61 90.32 386.78 78.00 C 386.64 59.00 386.75 39.99 386.63 20.99 C 386.86 16.60 386.70 10.50 391.55 8.50 C 394.56 6.93 397.50 9.43 400.20 10.57 Z" />
<path fill="#fd9903" opacity="1.00" d=" M 426.40 42.09 C 428.89 41.90 431.57 41.07 433.99 41.96 C 435.82 44.01 436.86 46.61 438.17 49.00 C 439.89 48.90 441.61 48.80 443.33 48.70 C 444.96 53.34 444.77 58.60 441.76 62.66 C 440.06 64.91 437.61 68.62 434.35 67.07 C 431.02 65.44 426.33 63.37 426.37 59.02 C 426.04 53.38 426.36 47.73 426.40 42.09 Z" />
</g>
<g id="#363435ff">
<path fill="#363435" opacity="1.00" d=" M 68.18 164.17 C 70.92 162.07 74.75 159.05 78.01 161.96 C 89.61 169.73 94.84 184.05 96.25 197.43 C 96.83 206.29 97.26 215.40 94.74 224.03 C 89.77 224.53 84.77 224.52 79.79 224.14 C 82.00 217.43 86.62 210.91 85.42 203.54 C 83.09 199.80 77.88 200.44 74.10 200.76 C 69.46 201.48 63.61 202.66 61.64 207.52 C 60.07 213.52 63.71 218.99 66.02 224.24 C 61.74 224.34 57.39 224.82 53.15 224.06 C 50.52 223.54 50.22 220.33 49.58 218.20 C 46.49 198.70 52.69 177.04 68.18 164.17 M 62.79 192.30 C 69.82 191.40 76.86 190.59 83.84 189.39 C 83.02 182.98 80.20 176.86 75.06 172.81 C 68.29 177.03 63.48 184.29 62.79 192.30 Z" />
<path fill="#363435" opacity="1.00" d=" M 177.70 173.65 C 181.79 168.34 186.47 162.71 193.06 160.55 C 199.90 162.78 204.43 169.08 207.94 175.04 C 214.03 186.63 215.79 200.12 214.98 213.06 C 214.61 216.67 214.56 220.55 212.60 223.74 C 207.95 225.13 202.97 224.27 198.20 224.19 C 200.39 217.23 205.31 210.34 203.30 202.73 C 200.04 199.70 195.12 200.43 191.08 200.95 C 186.35 201.65 180.63 203.76 179.58 209.05 C 179.14 214.50 182.37 219.32 184.21 224.25 C 179.28 224.52 174.31 224.57 169.42 223.80 C 164.53 207.03 167.70 187.99 177.70 173.65 M 188.52 176.55 C 184.61 180.86 181.52 186.15 181.03 192.06 C 188.04 191.54 194.99 190.40 201.98 189.65 C 201.40 183.55 199.03 177.18 193.90 173.49 C 191.71 173.53 189.96 175.05 188.52 176.55 Z" />
<path fill="#363435" opacity="1.00" d=" M 223.46 162.66 C 233.77 160.04 244.74 159.61 255.12 162.11 C 258.25 162.94 261.74 164.08 263.49 167.03 C 263.19 171.02 261.05 174.53 259.16 177.96 C 255.91 175.36 252.83 170.95 248.16 171.66 C 245.91 173.36 245.35 176.29 244.78 178.88 C 242.03 193.93 244.21 209.34 247.83 224.05 C 243.59 224.35 239.30 224.77 235.06 224.25 C 233.08 224.26 232.88 222.04 232.44 220.61 C 231.00 213.51 231.44 206.20 231.56 199.00 C 231.77 189.73 234.65 180.75 234.80 171.48 C 227.51 171.82 222.47 177.61 216.17 180.45 C 216.40 175.44 217.10 170.37 218.94 165.67 C 219.55 163.73 221.75 163.22 223.46 162.66 Z" />
<path fill="#363435" opacity="1.00" d=" M 525.43 161.14 C 527.71 159.65 530.12 161.80 532.04 162.98 C 541.43 170.31 546.45 182.01 548.21 193.55 C 549.31 203.37 550.26 213.68 547.18 223.24 C 542.70 225.62 537.19 224.02 532.31 224.19 C 534.25 218.12 537.81 212.47 538.31 206.01 C 538.69 202.98 535.76 200.83 533.01 200.66 C 528.22 200.20 523.26 200.93 518.83 202.81 C 515.65 204.17 513.21 207.42 513.64 210.98 C 514.11 215.72 516.64 219.89 518.39 224.23 C 514.27 224.36 510.12 224.73 506.03 224.19 C 503.17 223.73 502.51 220.39 502.04 218.02 C 500.20 203.04 502.50 186.92 511.41 174.40 C 515.19 169.19 519.56 164.04 525.43 161.14 M 514.98 192.23 C 522.01 191.58 528.97 190.39 535.99 189.69 C 535.85 183.15 532.59 177.20 527.85 172.84 C 520.64 176.67 516.27 184.35 514.98 192.23 Z" />
<path fill="#363435" opacity="1.00" d=" M 26.99 161.70 C 31.39 161.56 35.79 161.57 40.18 161.65 C 43.26 171.47 42.37 181.87 42.63 192.00 C 42.57 201.49 43.66 211.87 38.25 220.25 C 33.63 227.73 21.53 227.11 16.58 220.37 C 15.80 215.80 18.32 211.57 20.27 207.64 C 22.02 209.30 23.71 211.02 25.38 212.76 C 26.52 212.76 27.66 212.77 28.79 212.80 C 31.07 205.07 30.37 196.94 30.33 189.00 C 30.22 179.79 27.96 170.82 26.99 161.70 Z" />
<path fill="#363435" opacity="1.00" d=" M 103.74 161.62 C 107.84 161.57 111.94 161.58 116.05 161.73 C 113.49 176.25 112.63 192.09 119.26 205.69 C 119.88 205.68 121.12 205.64 121.75 205.63 C 130.64 192.79 129.02 176.43 128.06 161.69 C 132.20 161.57 136.34 161.57 140.48 161.71 C 138.55 176.29 138.11 191.89 144.43 205.54 C 145.05 205.61 146.28 205.74 146.90 205.81 C 155.44 192.77 154.91 176.25 151.33 161.66 C 155.16 161.56 158.99 161.61 162.80 161.91 C 165.61 178.41 162.87 195.61 155.58 210.64 C 152.90 216.44 149.71 222.10 145.19 226.69 C 139.60 220.56 137.28 212.32 132.02 205.96 C 126.60 212.23 124.35 220.52 118.79 226.70 C 113.31 221.52 110.07 214.56 107.33 207.66 C 104.09 199.52 102.20 190.80 102.28 182.03 C 102.31 175.21 101.86 168.26 103.74 161.62 Z" />
<path fill="#363435" opacity="1.00" d=" M 271.80 161.62 C 275.86 161.58 279.93 161.58 283.99 161.73 C 283.33 168.12 281.72 174.37 280.85 180.73 C 280.12 186.81 280.29 192.95 280.47 199.05 C 280.69 207.61 282.93 215.93 283.86 224.42 C 279.37 224.44 274.90 224.42 270.42 224.37 C 267.13 214.94 268.52 204.79 268.18 195.00 C 268.52 183.85 267.40 172.16 271.80 161.62 Z" />
<path fill="#363435" opacity="1.00" d=" M 294.18 164.93 C 294.68 163.55 295.26 161.77 297.05 161.77 C 301.29 161.41 306.70 160.54 309.78 164.26 C 314.50 169.46 317.26 176.01 320.58 182.11 C 324.87 175.37 328.05 167.48 334.66 162.60 C 338.27 161.05 342.77 160.98 346.40 162.50 C 348.50 166.20 348.58 170.61 349.13 174.73 C 349.88 185.14 349.70 195.58 349.66 206.00 C 349.49 211.48 349.80 217.10 348.24 222.41 C 347.96 223.86 346.32 224.34 345.05 224.35 C 341.08 224.63 337.11 224.36 333.15 224.14 C 336.43 208.97 339.50 193.09 336.38 177.65 C 331.52 180.03 330.18 185.69 328.34 190.30 C 326.01 196.12 325.70 202.54 323.30 208.31 C 322.47 210.46 319.58 209.95 317.93 209.17 C 315.98 207.05 315.41 204.10 314.61 201.43 C 312.63 193.42 310.03 185.47 305.77 178.36 C 305.11 178.33 303.80 178.28 303.14 178.25 C 300.59 193.60 303.19 209.20 306.91 224.14 C 302.59 224.46 298.25 224.46 293.93 224.21 C 293.10 220.88 292.38 217.50 292.36 214.05 C 292.20 203.70 292.16 193.35 292.36 183.00 C 292.46 176.95 292.31 170.76 294.18 164.93 Z" />
<path fill="#363435" opacity="1.00" d=" M 360.16 161.88 C 364.10 161.22 368.12 161.62 372.09 161.77 C 369.10 173.54 367.41 185.78 368.90 197.90 C 369.54 202.23 370.84 206.77 374.00 209.96 C 377.69 213.61 384.42 212.43 387.09 208.12 C 391.88 201.02 390.66 192.04 390.74 183.95 C 390.86 176.38 388.65 169.09 387.33 161.71 C 391.19 161.98 395.81 160.42 399.18 162.78 C 401.75 168.46 401.45 174.90 401.68 181.00 C 401.67 190.52 402.45 200.31 399.47 209.51 C 397.57 215.72 393.55 221.85 387.21 224.15 C 380.02 226.72 371.18 225.95 365.35 220.70 C 359.05 215.06 356.80 206.24 356.45 198.07 C 356.25 189.03 356.17 179.95 357.06 170.95 C 357.64 167.86 357.68 164.13 360.16 161.88 Z" />
<path fill="#363435" opacity="1.00" d=" M 411.65 162.54 C 414.54 161.13 417.89 161.66 421.00 161.53 C 427.58 161.76 434.27 161.00 440.76 162.46 C 445.55 163.51 449.76 167.43 450.60 172.35 C 451.27 176.47 450.95 181.02 448.55 184.56 C 446.21 188.06 442.81 190.64 439.69 193.40 C 443.20 198.83 447.82 203.55 450.38 209.56 C 452.51 214.15 453.05 219.24 453.40 224.23 C 448.80 224.47 444.19 224.47 439.59 224.15 C 438.37 216.21 436.75 207.82 431.59 201.41 C 428.78 197.50 423.20 201.13 421.62 204.45 C 420.39 211.11 422.59 217.76 423.69 224.28 C 419.57 224.31 415.37 224.87 411.30 224.01 C 408.89 223.23 409.52 220.08 408.96 218.11 C 407.94 204.98 408.24 191.78 408.71 178.63 C 409.28 173.24 408.97 167.43 411.65 162.54 M 422.64 173.65 C 419.78 178.91 419.92 185.37 421.60 190.99 C 427.86 189.47 434.05 186.22 437.67 180.71 C 439.50 177.98 439.12 173.64 436.03 171.98 C 431.94 169.78 425.64 169.59 422.64 173.65 Z" />
<path fill="#363435" opacity="1.00" d=" M 461.90 161.71 C 469.94 161.51 477.99 161.56 486.04 161.58 C 490.37 161.59 495.14 162.45 498.13 165.87 C 503.07 170.90 502.61 179.34 498.94 184.96 C 494.12 192.38 485.64 195.88 478.42 200.43 C 475.77 202.27 472.18 204.37 472.30 208.07 C 472.26 213.56 473.89 218.88 474.64 224.29 C 469.84 224.49 465.03 224.48 460.24 224.06 C 457.75 214.56 458.71 204.69 458.52 195.00 C 458.67 183.87 457.92 172.33 461.90 161.71 M 472.94 173.99 C 469.98 179.61 470.48 186.25 471.05 192.36 C 477.40 191.60 482.78 187.61 486.86 182.90 C 488.68 180.81 490.02 177.97 489.11 175.18 C 488.33 172.06 484.85 170.93 482.03 170.56 C 478.74 170.15 474.58 170.69 472.94 173.99 Z" />
<path fill="#363435" opacity="1.00" d=" M 558.87 162.76 C 561.85 160.87 565.65 161.77 569.01 161.54 C 576.42 161.91 584.35 160.44 591.30 163.74 C 597.08 166.59 599.48 173.89 597.77 179.89 C 596.45 185.85 591.21 189.58 586.90 193.39 C 590.74 199.14 595.63 204.28 598.13 210.84 C 599.99 215.08 600.41 219.74 600.47 224.31 C 595.87 224.46 591.27 224.45 586.68 224.09 C 585.38 215.47 583.79 205.65 576.84 199.65 C 573.34 199.55 569.66 201.99 568.53 205.32 C 567.76 211.77 570.13 218.05 570.92 224.39 C 566.58 224.28 562.13 225.01 557.88 223.93 C 555.83 219.61 555.89 214.66 555.60 209.98 C 555.42 197.37 555.14 184.71 556.49 172.15 C 556.92 168.97 557.01 165.50 558.87 162.76 M 570.16 173.21 C 566.93 178.46 567.01 185.14 568.66 190.92 C 574.79 189.67 580.60 186.46 584.42 181.45 C 586.49 178.66 586.60 173.59 583.09 171.89 C 579.12 169.85 573.32 169.66 570.16 173.21 Z" />
<path fill="#363435" opacity="1.00" d=" M 608.52 163.49 C 608.94 162.33 609.78 161.74 611.04 161.74 C 614.27 161.34 617.54 161.61 620.80 161.69 C 619.08 170.86 616.42 180.07 617.62 189.49 C 622.78 187.20 625.63 182.11 628.58 177.59 C 631.76 172.62 633.92 167.11 635.97 161.61 C 639.63 161.58 643.30 161.61 646.96 161.82 C 646.89 171.89 639.56 179.38 634.03 187.01 C 637.33 191.69 641.03 196.13 643.56 201.30 C 647.02 208.43 648.80 216.37 648.52 224.30 C 643.85 224.47 639.19 224.47 634.54 224.10 C 634.57 214.18 632.96 203.71 626.53 195.78 C 622.90 197.88 618.79 200.66 618.24 205.17 C 617.86 211.62 619.63 217.92 620.45 224.27 C 616.22 224.41 611.99 224.41 607.76 224.31 C 605.71 217.07 605.67 209.47 605.62 202.00 C 605.61 194.66 605.46 187.31 606.12 180.00 C 606.60 174.48 606.09 168.63 608.52 163.49 Z" />
</g>
</svg>
