<?xml version="1.0" encoding="UTF-8" standalone="no"?>
<!-- Created with Inkscape (http://www.inkscape.org/) -->
<svg
   xmlns:dc="http://purl.org/dc/elements/1.1/"
   xmlns:cc="http://creativecommons.org/ns#"
   xmlns:rdf="http://www.w3.org/1999/02/22-rdf-syntax-ns#"
   xmlns:svg="http://www.w3.org/2000/svg"
   xmlns="http://www.w3.org/2000/svg"
   xmlns:sodipodi="http://sodipodi.sourceforge.net/DTD/sodipodi-0.dtd"
   xmlns:inkscape="http://www.inkscape.org/namespaces/inkscape"
   width="250"
   height="165.76086"
   id="svg2410"
   sodipodi:version="0.32"
   inkscape:version="0.46"
   version="1.0"
   sodipodi:docname="Pos Indonesia logo.svg"
   inkscape:output_extension="org.inkscape.output.svg.inkscape">
  <defs
     id="defs2412">
    <inkscape:perspective
       sodipodi:type="inkscape:persp3d"
       inkscape:vp_x="0 : 526.18109 : 1"
       inkscape:vp_y="0 : 1000 : 0"
       inkscape:vp_z="744.09448 : 526.18109 : 1"
       inkscape:persp3d-origin="372.04724 : 350.78739 : 1"
       id="perspective2418" />
    <clipPath
       clipPathUnits="userSpaceOnUse"
       id="clipPath3206">
      <rect
         style="opacity:1;fill:none;fill-opacity:1;stroke:none;stroke-opacity:1"
         id="rect3208"
         width="420.57147"
         height="278.85715"
         x="214.13156"
         y="407.43445" />
    </clipPath>
  </defs>
  <sodipodi:namedview
     id="base"
     pagecolor="#ffffff"
     bordercolor="#666666"
     borderopacity="1.0"
     gridtolerance="10000"
     guidetolerance="10"
     objecttolerance="10"
     inkscape:pageopacity="0.0"
     inkscape:pageshadow="2"
     inkscape:zoom="1"
     inkscape:cx="377.77928"
     inkscape:cy="174.8051"
     inkscape:document-units="px"
     inkscape:current-layer="layer1"
     showgrid="false"
     inkscape:window-width="1280"
     inkscape:window-height="744"
     inkscape:window-x="0"
     inkscape:window-y="22" />
  <metadata
     id="metadata2415">
    <rdf:RDF>
      <cc:Work
         rdf:about="">
        <dc:format>image/svg+xml</dc:format>
        <dc:type
           rdf:resource="http://purl.org/dc/dcmitype/StillImage" />
      </cc:Work>
    </rdf:RDF>
  </metadata>
  <g
     inkscape:label="Layer 1"
     inkscape:groupmode="layer"
     id="layer1"
     transform="translate(-277.38783,-490.72224)">
    <g
       transform="matrix(0.5944293,0,0,0.5944293,150.10176,248.53127)"
       id="g4"
       clip-path="url(#clipPath3206)">
      <g
         id="g6">
        <g
           id="g8">
          <path
             style="fill:#88898b;stroke:none"
             d="M 593.759,684.768 L 605.843,650.874 L 619.411,650.874 L 631.265,684.768 L 618.163,684.768 L 617.072,680.509 L 607.881,680.509 L 606.838,684.768 L 593.759,684.768 z M 609.92,672.448 L 614.986,672.448 L 613.951,668.607 C 613.437,666.663 613.089,665.162 612.907,664.111 C 612.718,663.068 612.607,662.08 612.56,661.155 L 612.354,661.155 C 612.307,662.08 612.188,663.068 612.007,664.111 C 611.817,665.162 611.469,666.663 610.963,668.607 L 609.92,672.448 z M 579.152,684.768 L 579.152,650.874 L 591.553,650.874 L 591.553,684.768 L 579.152,684.768 z M 547.214,680.975 L 551.103,671.484 C 552.849,672.701 554.398,673.594 555.766,674.155 C 557.132,674.716 558.413,675 559.598,675 C 560.436,675 561.092,674.842 561.565,674.526 C 562.048,674.21 562.285,673.783 562.285,673.238 C 562.285,672.298 561.092,671.579 558.697,671.089 C 557.923,670.915 557.322,670.788 556.887,670.694 C 554.359,670.077 552.422,668.979 551.079,667.406 C 549.736,665.833 549.064,663.873 549.064,661.526 C 549.064,657.883 550.368,654.92 552.976,652.636 C 555.583,650.352 559.005,649.206 563.233,649.206 C 565.185,649.206 567.098,649.459 568.978,649.973 C 570.859,650.479 572.763,651.253 574.676,652.288 L 570.97,661.155 C 569.8,660.294 568.623,659.63 567.437,659.172 C 566.26,658.721 565.114,658.492 564,658.492 C 563.154,658.492 562.498,658.634 562.032,658.919 C 561.565,659.203 561.336,659.606 561.336,660.112 C 561.336,661.068 563.028,661.914 566.41,662.633 C 566.947,662.759 567.366,662.854 567.659,662.917 C 569.99,663.439 571.823,664.514 573.167,666.134 C 574.51,667.754 575.182,669.714 575.182,672.013 C 575.182,675.76 573.831,678.825 571.12,681.204 C 568.41,683.583 564.885,684.768 560.546,684.768 C 558.326,684.768 556.105,684.452 553.884,683.82 C 551.656,683.188 549.435,682.239 547.214,680.975 z M 521.74,684.768 L 521.74,650.874 L 544.405,650.874 L 544.405,660.064 L 533.689,660.064 L 533.689,663.328 L 543.409,663.328 L 543.409,672.013 L 533.689,672.013 L 533.689,675.577 L 544.681,675.577 L 544.681,684.768 L 521.74,684.768 z M 481.024,684.768 L 481.024,650.874 L 492.973,650.874 L 503.508,668.607 C 503.365,667.825 503.27,666.948 503.215,665.991 C 503.16,665.035 503.136,663.786 503.136,662.237 L 503.136,650.874 L 514.871,650.874 L 514.871,684.768 L 502.836,684.768 L 492.412,667.169 C 492.539,667.928 492.625,668.741 492.689,669.619 C 492.752,670.488 492.783,671.46 492.783,672.543 L 492.783,684.768 L 481.024,684.768 z M 475.564,667.894 C 475.564,670.376 475.122,672.691 474.245,674.825 C 473.367,676.967 472.079,678.879 470.38,680.563 C 468.681,682.214 466.721,683.479 464.508,684.356 C 462.296,685.233 459.933,685.675 457.436,685.675 C 454.907,685.675 452.536,685.233 450.331,684.356 C 448.118,683.479 446.159,682.198 444.444,680.515 C 442.768,678.879 441.488,676.991 440.627,674.865 C 439.765,672.731 439.331,670.408 439.331,667.894 C 439.331,665.382 439.765,663.05 440.627,660.901 C 441.488,658.759 442.768,656.863 444.444,655.227 C 446.143,653.567 448.095,652.295 450.307,651.426 C 452.512,650.549 454.891,650.114 457.436,650.114 C 459.98,650.114 462.359,650.549 464.564,651.426 C 466.777,652.295 468.736,653.567 470.451,655.227 C 472.111,656.878 473.383,658.783 474.252,660.924 C 475.13,663.074 475.564,665.397 475.564,667.894 z M 457.436,674.288 C 459.151,674.288 460.526,673.703 461.569,672.541 C 462.612,671.372 463.133,669.831 463.133,667.894 C 463.133,665.951 462.612,664.394 461.569,663.208 C 460.526,662.031 459.151,661.438 457.436,661.438 C 455.721,661.438 454.338,662.031 453.287,663.224 C 452.236,664.41 451.714,665.967 451.714,667.894 C 451.714,669.831 452.236,671.372 453.287,672.541 C 454.338,673.703 455.721,674.288 457.436,674.288 z M 402.827,684.768 L 402.827,650.874 L 412.69,650.874 C 415.819,650.874 418.498,651.047 420.711,651.395 C 422.923,651.743 424.733,652.28 426.116,653.007 C 429.056,654.548 431.3,656.595 432.873,659.14 C 434.437,661.684 435.22,664.585 435.22,667.841 C 435.22,671.088 434.437,673.973 432.881,676.502 C 431.324,679.031 429.072,681.078 426.116,682.634 C 424.686,683.377 422.86,683.922 420.655,684.262 C 418.45,684.602 415.487,684.768 411.788,684.768 L 402.827,684.768 z M 414.91,674.416 C 417.66,674.4 419.667,673.862 420.94,672.803 C 422.204,671.752 422.836,670.093 422.836,667.841 C 422.836,665.636 422.228,663.992 421.019,662.909 C 419.802,661.827 417.945,661.289 415.44,661.289 L 414.91,661.289 L 414.91,674.416 z M 361.984,684.768 L 361.984,650.873 L 373.933,650.873 L 384.467,668.607 C 384.325,667.824 384.23,666.947 384.175,665.991 C 384.119,665.035 384.095,663.786 384.095,662.237 L 384.095,650.873 L 395.831,650.873 L 395.831,684.768 L 383.795,684.768 L 373.371,667.168 C 373.498,667.927 373.585,668.741 373.648,669.618 C 373.711,670.488 373.743,671.46 373.743,672.542 L 373.743,684.768 L 361.984,684.768 z M 342.985,684.768 L 342.985,650.873 L 355.368,650.873 L 355.368,684.768 L 342.985,684.768 z M 293.903,682.366 L 297.791,672.875 C 299.538,674.092 301.086,674.985 302.454,675.546 C 303.821,676.107 305.101,676.391 306.286,676.391 C 307.124,676.391 307.78,676.234 308.254,675.917 C 308.736,675.602 308.974,675.174 308.974,674.629 C 308.974,673.689 307.78,672.97 305.386,672.48 C 304.611,672.306 304.011,672.18 303.576,672.085 C 301.047,671.468 299.111,670.37 297.767,668.797 C 296.424,667.225 295.752,665.265 295.752,662.917 C 295.752,659.274 297.056,656.311 299.664,654.027 C 302.272,651.743 305.694,650.597 309.922,650.597 C 311.874,650.597 313.786,650.85 315.667,651.364 C 317.548,651.87 319.452,652.644 321.365,653.679 L 317.659,662.546 C 316.489,661.685 315.312,661.021 314.126,660.563 C 312.948,660.112 311.802,659.883 310.688,659.883 C 309.843,659.883 309.187,660.025 308.72,660.31 C 308.254,660.594 308.025,660.997 308.025,661.503 C 308.025,662.459 309.716,663.305 313.099,664.024 C 313.636,664.15 314.055,664.245 314.347,664.308 C 316.679,664.83 318.512,665.905 319.855,667.525 C 321.199,669.145 321.871,671.105 321.871,673.404 C 321.871,677.151 320.519,680.217 317.809,682.596 C 315.098,684.974 311.574,686.159 307.235,686.159 C 305.014,686.159 302.794,685.843 300.573,685.211 C 298.344,684.579 296.124,683.63 293.903,682.366 z M 291.39,668.378 C 291.39,670.86 290.947,673.175 290.07,675.309 C 289.193,677.451 287.905,679.363 286.206,681.047 C 284.507,682.698 282.547,683.963 280.334,684.84 C 278.121,685.717 275.758,686.159 273.261,686.159 C 270.732,686.159 268.361,685.717 266.157,684.84 C 263.944,683.963 261.984,682.682 260.269,680.999 C 258.594,679.363 257.314,677.474 256.452,675.349 C 255.59,673.215 255.156,670.891 255.156,668.378 C 255.156,665.865 255.59,663.534 256.452,661.384 C 257.314,659.243 258.594,657.346 260.269,655.71 C 261.968,654.051 263.92,652.778 266.133,651.909 C 268.338,651.032 270.716,650.597 273.261,650.597 C 275.806,650.597 278.184,651.032 280.389,651.909 C 282.602,652.778 284.562,654.051 286.277,655.71 C 287.936,657.362 289.209,659.267 290.078,661.408 C 290.955,663.558 291.39,665.881 291.39,668.378 z M 273.261,674.772 C 274.976,674.772 276.351,674.187 277.394,673.025 C 278.438,671.855 278.959,670.315 278.959,668.378 C 278.959,666.434 278.438,664.877 277.394,663.692 C 276.351,662.514 274.976,661.922 273.261,661.922 C 271.546,661.922 270.163,662.514 269.112,663.708 C 268.061,664.893 267.539,666.45 267.539,668.378 C 267.539,670.315 268.061,671.855 269.112,673.025 C 270.163,674.187 271.546,674.772 273.261,674.772 z M 234.778,660.863 L 234.778,666.514 L 236.675,666.514 C 237.829,666.514 238.722,666.269 239.338,665.787 C 239.954,665.296 240.263,664.609 240.263,663.708 C 240.263,662.815 239.947,662.12 239.315,661.614 C 238.682,661.116 237.805,660.863 236.675,660.863 L 234.778,660.863 z M 222.529,685.338 L 222.529,651.443 L 237.093,651.443 C 242.215,651.443 245.96,652.431 248.332,654.407 C 250.702,656.382 251.888,659.512 251.888,663.803 C 251.888,667.802 250.821,670.726 248.695,672.567 C 246.561,674.408 243.179,675.333 238.548,675.333 L 234.731,675.333 L 234.731,685.338 L 222.529,685.338 z"
             id="path10" />
          <path
             style="fill:#f8ac5e;stroke:none"
             d="M 366.744,573.308 L 403.243,573.308 L 393.386,580.02 L 371.056,580.02 L 367.468,574.569 C 367.223,574.15 366.982,573.729 366.744,573.308 z M 545.161,579.32 L 504.658,579.522 C 497.044,599.963 476.882,617.487 462.601,626.594 C 461.85,626.693 461.245,626.779 460.742,626.853 C 459.957,626.872 459.171,626.884 458.383,626.884 C 457.288,626.884 456.191,626.863 455.094,626.823 C 454.709,626.767 454.275,626.705 453.779,626.634 C 445.113,621.344 433.311,613.318 426.97,604.268 L 434.115,601.166 C 439.909,608.837 446.922,614.487 453.993,621.493 L 454.129,593.639 L 460.71,591.1 L 460.855,622.084 C 474.754,610.465 487.818,594.729 496.336,579.522 L 493.151,579.32 L 508.231,572.684 L 549.213,572.583 C 547.719,575.344 546.905,576.715 545.161,579.32 z M 460.623,536.983 L 453.982,541.153 L 453.982,530.352 L 460.623,530.339 L 460.623,536.983 z M 413.577,566.214 C 409.4,555.026 406.594,543.749 405.918,530.861 L 399.532,530.861 C 400.121,545.001 402.482,557.279 407.097,570.437 L 413.577,566.214 z M 460.416,458.89 L 460.519,421.128 C 472.359,430.358 484.766,443.469 493.58,458.884 L 501.592,458.884 C 491.425,435.535 470.814,421.043 461.894,417.234 C 461.382,417.162 460.802,417.099 460.181,417.049 C 459.582,417.038 458.983,417.03 458.383,417.03 C 457.021,417.006 455.658,417.016 454.297,417.051 C 453.992,417.08 453.695,417.114 453.406,417.155 C 441.743,423.059 422.173,438.437 414.222,459.262 L 422.863,459.262 C 430.185,443.257 442.254,431.826 454.019,422.007 L 453.916,458.89 L 460.416,458.89 z"
             id="path12" />
          <path
             style="fill:#eb5f27;stroke:none"
             d="M 347.614,532.997 L 353.866,532.47 C 356.469,556.511 365.028,573.505 378.714,590.866 L 373.799,594.973 C 357.772,576.275 348.148,554.439 347.614,532.997 z M 406.008,612.874 L 399.039,616.377 C 416.135,627.061 436.746,633.125 458.383,633.125 C 507.027,632.285 548.716,600.471 563.513,556.395 L 555.43,558.975 C 541.273,598.24 502.456,626.884 458.383,626.884 C 439.952,626.884 420.967,621.154 406.008,612.874 z M 268.97,486.802 L 272.517,484.018 L 454.135,477.599 C 459.553,477.849 466.065,482.068 467.977,485.863 L 268.97,486.802 z M 255.457,497.223 L 472.2,490.671 C 476.207,490.671 482.633,494.688 486.372,498.695 L 251.453,500.16 L 255.457,497.223 z M 238.135,510.958 L 488.761,504.027 C 495.465,503.754 502.964,508.867 504.153,511.623 L 234.397,514.048 L 238.135,510.958 z M 541.871,459.245 C 522.906,434.403 491.505,417.03 458.383,417.03 C 424.942,416.445 391.586,433.842 373.518,459.581 L 365.724,459.749 C 385.757,430.367 420.185,410.63 458.383,410.63 C 496.046,410.63 529.801,429.961 549.834,459.076 L 541.871,459.245 z M 598.129,521.714 C 600.4,521.714 601.869,523.583 601.869,525.987 C 601.869,528.391 600.4,529.727 598.129,529.727 C 595.859,529.727 593.856,528.391 593.856,525.987 C 593.856,523.583 595.859,521.714 598.129,521.714 z M 290.636,469.332 L 549.851,462.37 C 580.191,469.273 579.44,492.771 564.634,512.016 L 592.901,511.715 C 606.981,511.127 614.666,524.249 628.199,537.259 C 589.467,541.532 554.251,551.131 514.184,563.952 C 458.09,582.383 406.097,605.054 349.469,629.094 C 378.851,596.773 404.878,579.975 431.055,562.078 C 451.044,549.785 475.68,536.068 494.132,526.133 L 507.213,526.133 C 491.812,533.83 469.504,547.203 449.268,558.737 C 427.82,570.962 399.671,589.897 380.407,609.048 C 429.784,588.676 471.732,570.935 520.469,555.531 C 547.759,547.125 579.501,537.157 612.964,531.726 C 609.825,523.611 602.853,518.392 590.836,518.392 L 550.096,518.392 C 558.752,508.932 566.07,494.962 565.96,484.419 C 565.891,477.801 556.223,471.131 548.971,471.16 L 287.547,472.231 L 290.636,469.332 z M 217.882,527.811 L 221.087,525.14 L 497.576,517.419 C 503.452,517.419 507.726,516.314 511.198,517.383 C 516.007,519.253 519.479,521.657 522.417,525.129 L 217.882,527.811 z"
             id="path14" />
          <path
             style="fill:none;stroke:#2c2c2b;stroke-width:0.21600001"
             d="M 182.534,345.651 L 182.534,301.749"
             id="path16" />
          <path
             style="fill:none;stroke:#2c2c2b;stroke-width:0.21600001"
             d="M 182.534,786.755 L 182.534,742.853"
             id="path18" />
          <path
             style="fill:none;stroke:#2c2c2b;stroke-width:0.21600001"
             d="M 659.178,345.651 L 659.178,301.749"
             id="path20" />
          <path
             style="fill:none;stroke:#2c2c2b;stroke-width:0.21600001"
             d="M 659.178,786.755 L 659.178,742.853"
             id="path22" />
          <path
             style="fill:none;stroke:#2c2c2b;stroke-width:0.21600001"
             d="M 182.713,345.741 L 138.811,345.741"
             id="path24" />
          <path
             style="fill:none;stroke:#2c2c2b;stroke-width:0.21600001"
             d="M 703.078,345.741 L 659.177,345.741"
             id="path26" />
          <path
             style="fill:none;stroke:#2c2c2b;stroke-width:0.21600001"
             d="M 182.713,742.854 L 138.811,742.854"
             id="path28" />
          <path
             style="fill:none;stroke:#2c2c2b;stroke-width:0.21600001"
             d="M 703.078,742.854 L 659.177,742.854"
             id="path30" />
        </g>
      </g>
    </g>
  </g>
</svg>
